<svg width="214" height="56" viewBox="0 0 214 56" fill="none" xmlns="http://www.w3.org/2000/svg" role="img" aria-label="July Canvas">
<g transform="translate(2,5) scale(0.96)"><path d="M24,21.15 L38.5,28.4 L24,35.65 L9.5,28.4 Z" fill="#50FA6E"></path><path d="M9.5,28.4 L24,35.65 L24,39.25 L9.5,32 Z" fill="#25C547"></path><path d="M24,35.65 L38.5,28.4 L38.5,32 L24,39.25 Z" fill="#11982F"></path><path d="M24,14.95 L38.5,22.2 L24,29.45 L9.5,22.2 Z" fill="#50FA6E"></path><path d="M9.5,22.2 L24,29.45 L24,33.05 L9.5,25.8 Z" fill="#25C547"></path><path d="M24,29.45 L38.5,22.2 L38.5,25.8 L24,33.05 Z" fill="#11982F"></path><path d="M24,8.75 L38.5,16 L24,23.25 L9.5,16 Z" fill="#50FA6E"></path><path d="M9.5,16 L24,23.25 L24,26.85 L9.5,19.6 Z" fill="#25C547"></path><path d="M24,23.25 L38.5,16 L38.5,19.6 L24,26.85 Z" fill="#11982F"></path><path d="M24,11.07 C25.68,14.32 28.93,16 28.93,16 C25.68,17.68 24,20.93 24,20.93 C22.32,17.68 19.07,16 19.07,16 C22.32,14.32 24,11.07 24,11.07 Z" fill="#06371a" opacity=".9"></path></g><text x="63" y="37" font-family="&#39;Pretendard Variable&#39;,Pretendard,-apple-system,sans-serif" font-size="30" font-weight="800" letter-spacing="-0.025em"><tspan fill="#141a22">July </tspan><tspan fill="#0c7d28">Canvas</tspan></text>
</svg>